<svg id="Layer_1" data-name="Layer 1" xmlns="http://www.w3.org/2000/svg" viewBox="0 0 396.12 552.19"><defs><style>.cls-1{fill:#fff;stroke:#1d1d1b;stroke-miterlimit:10;stroke-width:2px;}</style></defs><title>D-logo-withName</title><path class="cls-1" d="M344.82,519.08" transform="translate(-222.66 -97.75)"/><path class="cls-1" d="M410.25,496" transform="translate(-222.66 -97.75)"/><path class="cls-1" d="M432,420.46" transform="translate(-222.66 -97.75)"/><path class="cls-1" d="M350,353.13" transform="translate(-222.66 -97.75)"/><path class="cls-1" d="M617.3,363.16C602,92.83,278.79,100.45,278.79,100.45v547S632.63,633.48,617.3,363.16ZM516.91,424.62c-12,85.87-159.71,114.55-159.71,114.55L359.79,275l.68-69.61C498.58,242.66,530,330.67,516.91,424.62Z" transform="translate(-222.66 -97.75)"/><path class="cls-1" d="M516.91,424.62c-12,85.87-159.71,114.55-159.71,114.55L359.79,275l-.54,222.26S465.58,472.93,469.07,394,359.79,275,359.79,275l.68-69.61C498.58,242.66,530,330.67,516.91,424.62Z" transform="translate(-222.66 -97.75)"/><polygon class="cls-1" points="56.12 2.7 56.12 549.69 1 491.69 4.28 62.96 56.12 2.7"/></svg>